<mxfile host="drawio-plugin" modified="2022-10-25T22:19:54.008Z" agent="5.0 (Macintosh; Intel Mac OS X 10_15_7) AppleWebKit/537.36 (KHTML, like Gecko) Chrome/98.0.4758.102 Safari/537.36" version="15.5.4" etag="6r2rk4fh3bxGb7gCznuy" type="embed"><diagram id="rioHinmM8uMciYFnINqu" name="Page-1"><mxGraphModel dx="514" dy="492" grid="1" gridSize="10" guides="1" tooltips="1" connect="1" arrows="1" fold="1" page="1" pageScale="1" pageWidth="850" pageHeight="1100" math="0" shadow="0"><root><mxCell id="0"/><mxCell id="1" parent="0"/><mxCell id="2" value="s:ScrabbleModel" style="shape=umlLifeline;perimeter=lifelinePerimeter;whiteSpace=wrap;html=1;container=1;collapsible=0;recursiveResize=0;outlineConnect=0;" vertex="1" parent="1"><mxGeometry x="60" y="50" width="100" height="600" as="geometry"/></mxCell><mxCell id="3" value="" style="html=1;points=[];perimeter=orthogonalPerimeter;" vertex="1" parent="2"><mxGeometry x="50" y="90" width="10" height="160" as="geometry"/></mxCell><mxCell id="4" value="nextTurn();" style="edgeStyle=orthogonalEdgeStyle;html=1;align=left;spacingLeft=2;endArrow=block;rounded=0;entryX=1;entryY=0;" edge="1" parent="2" target="3"><mxGeometry relative="1" as="geometry"><mxPoint x="55" y="70" as="sourcePoint"/><Array as="points"><mxPoint x="85" y="70"/></Array></mxGeometry></mxCell><mxCell id="5" value="" style="html=1;points=[];perimeter=orthogonalPerimeter;" vertex="1" parent="2"><mxGeometry x="50" y="250" width="10" height="270" as="geometry"/></mxCell><mxCell id="6" value="p:Player" style="shape=umlLifeline;perimeter=lifelinePerimeter;whiteSpace=wrap;html=1;container=1;collapsible=0;recursiveResize=0;outlineConnect=0;" vertex="1" parent="1"><mxGeometry x="270" y="50" width="100" height="570" as="geometry"/></mxCell><mxCell id="7" value="" style="html=1;points=[];perimeter=orthogonalPerimeter;" vertex="1" parent="6"><mxGeometry x="45" y="110" width="10" height="420" as="geometry"/></mxCell><mxCell id="8" value="" style="endArrow=open;endFill=1;endSize=12;html=1;rounded=0;entryX=0.45;entryY=0.833;entryDx=0;entryDy=0;entryPerimeter=0;" edge="1" parent="6" source="7" target="7"><mxGeometry width="160" relative="1" as="geometry"><mxPoint x="55" y="250" as="sourcePoint"/><mxPoint x="180" y="240" as="targetPoint"/><Array as="points"><mxPoint x="180" y="240"/><mxPoint x="180" y="250"/><mxPoint x="180" y="460"/></Array></mxGeometry></mxCell><mxCell id="9" value="handleDiscard(this)" style="html=1;verticalAlign=bottom;startArrow=oval;startFill=1;endArrow=block;startSize=8;rounded=0;exitX=0.1;exitY=0.054;exitDx=0;exitDy=0;exitPerimeter=0;" edge="1" parent="1" source="7"><mxGeometry width="60" relative="1" as="geometry"><mxPoint x="410" y="230" as="sourcePoint"/><mxPoint x="120" y="180" as="targetPoint"/></mxGeometry></mxCell><mxCell id="10" value="t:TextController" style="shape=umlLifeline;perimeter=lifelinePerimeter;whiteSpace=wrap;html=1;container=1;collapsible=0;recursiveResize=0;outlineConnect=0;" vertex="1" parent="1"><mxGeometry x="440" y="50" width="100" height="570" as="geometry"/></mxCell><mxCell id="11" value="" style="html=1;points=[];perimeter=orthogonalPerimeter;" vertex="1" parent="10"><mxGeometry x="40" y="140" width="10" height="80" as="geometry"/></mxCell><mxCell id="12" value="" style="html=1;points=[];perimeter=orthogonalPerimeter;" vertex="1" parent="10"><mxGeometry x="40" y="170" width="10" height="50" as="geometry"/></mxCell><mxCell id="13" value="isValidWord(String);" style="edgeStyle=orthogonalEdgeStyle;html=1;align=left;spacingLeft=2;endArrow=block;rounded=0;entryX=1;entryY=0;" edge="1" parent="10" target="12"><mxGeometry relative="1" as="geometry"><mxPoint x="45" y="150" as="sourcePoint"/><Array as="points"><mxPoint x="75" y="150"/></Array></mxGeometry></mxCell><mxCell id="14" value="discardLetters(List&amp;lt;Letter&amp;gt;)" style="text;html=1;align=center;verticalAlign=middle;resizable=0;points=[];autosize=1;strokeColor=none;fillColor=none;rotation=0;" vertex="1" parent="10"><mxGeometry x="-110" y="470" width="160" height="20" as="geometry"/></mxCell><mxCell id="15" value="askForWord(String);" style="html=1;verticalAlign=bottom;endArrow=block;entryX=0;entryY=0;rounded=0;" edge="1" parent="1" source="6" target="11"><mxGeometry relative="1" as="geometry"><mxPoint x="410" y="190" as="sourcePoint"/></mxGeometry></mxCell><mxCell id="16" value="List&amp;lt;Letter&amp;gt;" style="html=1;verticalAlign=bottom;endArrow=open;dashed=1;endSize=8;exitX=0;exitY=0.95;rounded=0;" edge="1" parent="1" source="11" target="6"><mxGeometry relative="1" as="geometry"><mxPoint x="410" y="266" as="targetPoint"/></mxGeometry></mxCell><mxCell id="17" value="getDrawPile();" style="html=1;verticalAlign=bottom;endArrow=block;entryX=1;entryY=0;rounded=0;" edge="1" parent="1" source="6" target="5"><mxGeometry relative="1" as="geometry"><mxPoint x="180" y="300" as="sourcePoint"/></mxGeometry></mxCell><mxCell id="18" value="DrawPile" style="html=1;verticalAlign=bottom;endArrow=open;dashed=1;endSize=8;exitX=1;exitY=0.08;rounded=0;exitDx=0;exitDy=0;exitPerimeter=0;" edge="1" parent="1" source="5" target="6"><mxGeometry relative="1" as="geometry"><mxPoint x="180" y="357" as="targetPoint"/></mxGeometry></mxCell><mxCell id="19" value="d:DrawPile" style="shape=umlLifeline;perimeter=lifelinePerimeter;whiteSpace=wrap;html=1;container=1;collapsible=0;recursiveResize=0;outlineConnect=0;" vertex="1" parent="1"><mxGeometry x="630" y="50" width="100" height="570" as="geometry"/></mxCell><mxCell id="20" value="" style="html=1;points=[];perimeter=orthogonalPerimeter;" vertex="1" parent="19"><mxGeometry x="45" y="320" width="10" height="40" as="geometry"/></mxCell><mxCell id="21" value="addToPile(List&amp;lt;Letter&amp;gt;);" style="html=1;verticalAlign=bottom;startArrow=oval;endArrow=block;startSize=8;rounded=0;entryX=0.5;entryY=0.595;entryDx=0;entryDy=0;entryPerimeter=0;" edge="1" parent="1" source="19" target="7"><mxGeometry x="0.1655" relative="1" as="geometry"><mxPoint x="640" y="380" as="sourcePoint"/><mxPoint x="610" y="380" as="targetPoint"/><mxPoint as="offset"/></mxGeometry></mxCell><mxCell id="22" value="h:hand" style="shape=umlLifeline;perimeter=lifelinePerimeter;whiteSpace=wrap;html=1;container=1;collapsible=0;recursiveResize=0;outlineConnect=0;" vertex="1" parent="1"><mxGeometry x="800" y="50" width="100" height="580" as="geometry"/></mxCell><mxCell id="23" value="" style="html=1;points=[];perimeter=orthogonalPerimeter;" vertex="1" parent="22"><mxGeometry x="40" y="380" width="10" height="50" as="geometry"/></mxCell><mxCell id="24" value="" style="html=1;points=[];perimeter=orthogonalPerimeter;" vertex="1" parent="22"><mxGeometry x="40" y="410" width="10" height="40" as="geometry"/></mxCell><mxCell id="25" value="fillHand();" style="edgeStyle=orthogonalEdgeStyle;html=1;align=left;spacingLeft=2;endArrow=block;rounded=0;entryX=1;entryY=0;" edge="1" parent="22" target="24"><mxGeometry relative="1" as="geometry"><mxPoint x="45" y="390" as="sourcePoint"/><Array as="points"><mxPoint x="75" y="390"/></Array></mxGeometry></mxCell><mxCell id="26" value="useLetters(List&amp;lt;Letter&amp;gt;);" style="html=1;verticalAlign=bottom;endArrow=block;entryX=0;entryY=0;rounded=0;" edge="1" parent="1" source="6" target="23"><mxGeometry x="0.5773" relative="1" as="geometry"><mxPoint x="390" y="420" as="sourcePoint"/><mxPoint x="1" as="offset"/></mxGeometry></mxCell><mxCell id="27" value="boolean" style="html=1;verticalAlign=bottom;endArrow=open;dashed=1;endSize=8;exitX=0;exitY=0.95;rounded=0;" edge="1" parent="1" source="23" target="7"><mxGeometry relative="1" as="geometry"><mxPoint x="570" y="449" as="targetPoint"/></mxGeometry></mxCell></root></mxGraphModel></diagram></mxfile>